<mxfile host="65bd71144e">
    <diagram id="ku9NFhG4Z-rextW2DSpO" name="Page-1">
        <mxGraphModel dx="407" dy="139" grid="1" gridSize="10" guides="1" tooltips="1" connect="1" arrows="1" fold="1" page="1" pageScale="1" pageWidth="1200" pageHeight="1600" math="0" shadow="0">
            <root>
                <mxCell id="0"/>
                <mxCell id="1" parent="0"/>
                <mxCell id="5" value="&lt;font color=&quot;#000000&quot;&gt;&lt;span style=&quot;font-size: 18px ; background-color: rgb(255 , 102 , 102)&quot;&gt;Triangle Function&lt;br&gt;Calculating_area_of_triangle&lt;br&gt;&lt;/span&gt;&lt;/font&gt;" style="text;html=1;align=center;verticalAlign=middle;resizable=0;points=[];autosize=1;strokeColor=none;fillColor=none;fontSize=12;fontFamily=Georgia;" parent="1" vertex="1">
                    <mxGeometry x="90" y="570" width="250" height="40" as="geometry"/>
                </mxCell>
                <mxCell id="11" style="edgeStyle=none;html=1;fontFamily=Helvetica;fontSize=12;entryX=0.5;entryY=0;entryDx=0;entryDy=0;exitX=0.5;exitY=1;exitDx=0;exitDy=0;exitPerimeter=0;" parent="1" source="34" target="12" edge="1">
                    <mxGeometry relative="1" as="geometry">
                        <mxPoint x="380" y="720" as="targetPoint"/>
                        <mxPoint x="370" y="690" as="sourcePoint"/>
                    </mxGeometry>
                </mxCell>
                <mxCell id="15" style="edgeStyle=none;html=1;fontFamily=Helvetica;fontSize=12;entryX=0.5;entryY=0;entryDx=0;entryDy=0;" parent="1" source="12" target="36" edge="1">
                    <mxGeometry relative="1" as="geometry">
                        <mxPoint x="370" y="800" as="targetPoint"/>
                    </mxGeometry>
                </mxCell>
                <mxCell id="12" value="Get hight" style="shape=parallelogram;html=1;strokeWidth=2;perimeter=parallelogramPerimeter;whiteSpace=wrap;rounded=1;arcSize=12;size=0.23;fontFamily=Helvetica;fontSize=12;" parent="1" vertex="1">
                    <mxGeometry x="260" y="720" width="220" height="60" as="geometry"/>
                </mxCell>
                <mxCell id="18" style="edgeStyle=none;html=1;fontFamily=Helvetica;fontSize=12;exitX=0.5;exitY=1;exitDx=0;exitDy=0;entryX=0.5;entryY=0;entryDx=0;entryDy=0;" parent="1" source="36" target="37" edge="1">
                    <mxGeometry relative="1" as="geometry">
                        <mxPoint x="370" y="900" as="sourcePoint"/>
                        <mxPoint x="370" y="920" as="targetPoint"/>
                    </mxGeometry>
                </mxCell>
                <mxCell id="34" value="start" style="strokeWidth=2;html=1;shape=mxgraph.flowchart.terminator;whiteSpace=wrap;fontFamily=Helvetica;fontSize=12;" parent="1" vertex="1">
                    <mxGeometry x="320" y="630" width="100" height="60" as="geometry"/>
                </mxCell>
                <mxCell id="35" value="start" style="strokeWidth=2;html=1;shape=mxgraph.flowchart.terminator;whiteSpace=wrap;fontFamily=Helvetica;fontSize=12;" parent="1" vertex="1">
                    <mxGeometry x="320" y="1100" width="100" height="60" as="geometry"/>
                </mxCell>
                <mxCell id="36" value="Get base" style="shape=parallelogram;html=1;strokeWidth=2;perimeter=parallelogramPerimeter;whiteSpace=wrap;rounded=1;arcSize=12;size=0.23;fontFamily=Helvetica;fontSize=12;" vertex="1" parent="1">
                    <mxGeometry x="260" y="820" width="220" height="60" as="geometry"/>
                </mxCell>
                <mxCell id="38" style="edgeStyle=none;html=1;entryX=0.5;entryY=0;entryDx=0;entryDy=0;" edge="1" parent="1" source="37" target="39">
                    <mxGeometry relative="1" as="geometry">
                        <mxPoint x="320" y="1040" as="targetPoint"/>
                    </mxGeometry>
                </mxCell>
                <mxCell id="37" value="&amp;nbsp; &amp;nbsp; area = (base * height) / 2" style="rounded=0;whiteSpace=wrap;html=1;" vertex="1" parent="1">
                    <mxGeometry x="310" y="920" width="120" height="60" as="geometry"/>
                </mxCell>
                <mxCell id="40" style="edgeStyle=none;html=1;entryX=0.5;entryY=0;entryDx=0;entryDy=0;entryPerimeter=0;" edge="1" parent="1" source="39" target="35">
                    <mxGeometry relative="1" as="geometry"/>
                </mxCell>
                <mxCell id="39" value="&lt;div&gt;&amp;nbsp; &amp;nbsp;print(&quot;\nThe area is {0} cmÂ².&quot;.format(area))&lt;/div&gt;" style="shape=parallelogram;html=1;strokeWidth=2;perimeter=parallelogramPerimeter;whiteSpace=wrap;rounded=1;arcSize=12;size=0.23;fontFamily=Helvetica;fontSize=12;" vertex="1" parent="1">
                    <mxGeometry x="260" y="1010" width="220" height="60" as="geometry"/>
                </mxCell>
            </root>
        </mxGraphModel>
    </diagram>
</mxfile>